<svg xmlns="http://www.w3.org/2000/svg" viewBox="0 0 61.94 61.94" id="instagram">
  <defs>
    <radialGradient id="a" cx="63.87" cy="-16.37" r="122.35" gradientUnits="userSpaceOnUse">
      <stop offset=".16" stop-color="#ad55a5"></stop>
      <stop offset=".22" stop-color="#b85c9a"></stop>
      <stop offset=".41" stop-color="#d66d7e"></stop>
      <stop offset=".52" stop-color="#e17374"></stop>
      <stop offset=".73" stop-color="#f0b375"></stop>
      <stop offset=".83" stop-color="#f8d476"></stop>
    </radialGradient>
    <linearGradient id="b" x1="267.77" x2="267.77" y1="-651.48" y2="-687.28" gradientTransform="translate(-236.8 700.35)" gradientUnits="userSpaceOnUse">
      <stop offset="0" stop-color="#ecdcb8"></stop>
      <stop offset=".04" stop-color="#eddfbd"></stop>
      <stop offset=".28" stop-color="#f5edda"></stop>
      <stop offset=".52" stop-color="#fbf7ef"></stop>
      <stop offset=".75" stop-color="#fefdfb"></stop>
      <stop offset=".98" stop-color="#fff"></stop>
    </linearGradient>
  </defs>
  <g>
    <rect width="61.94" height="61.94" fill="url(#a)" rx="16.96"></rect>
    <path fill="#fff" d="M48.85,23.4a10.37,10.37,0,0,0-1.65-5.83,10,10,0,0,0-8.77-4.49c-2.48,0-5,0-7.43,0v.05c-2.85,0-5.7-.07-8.54,0a9.43,9.43,0,0,0-6.26,2.57,9.84,9.84,0,0,0-3.1,7.4c0,4.55,0,9.1,0,13.66A26.82,26.82,0,0,0,13.19,40a9.55,9.55,0,0,0,4.3,7.14,11,11,0,0,0,6.29,1.71c3.81,0,7.61,0,11.42,0a46.78,46.78,0,0,0,5.3-.2A9.2,9.2,0,0,0,47,44.75a10.42,10.42,0,0,0,1.84-6.18C48.88,33.52,48.87,28.46,48.85,23.4ZM45.68,38.13a8.06,8.06,0,0,1-.61,3.39,6.46,6.46,0,0,1-5.73,4c-1.41.12-2.84.07-4.27.07q-5.75,0-11.49,0a8,8,0,0,1-3.71-.81,6.14,6.14,0,0,1-3.4-5.32c-.12-1.46-.08-2.93-.08-4.39,0-3.81,0-7.62,0-11.42a9.76,9.76,0,0,1,.41-2.79,5.91,5.91,0,0,1,5.49-4.29c2.1-.19,4.22-.09,6.34-.12.8,0,1.59,0,2.39,0h0c2.61,0,5.22,0,7.83,0a6.77,6.77,0,0,1,4.24,1.39,6.41,6.41,0,0,1,2.48,4.7c.13,1.64.09,3.3.09,4.95C45.69,31,45.68,34.57,45.68,38.13Z"></path>
    <path fill="#fff" d="M30.93 21.68a9.23 9.23 0 109.26 9.23A9.24 9.24 0 0030.93 21.68zm0 15.13a5.91 5.91 0 115.91-5.92A5.9 5.9 0 0131 36.81zM40.58 19.37a2.09 2.09 0 102.07 2.09A2.08 2.08 0 0040.58 19.37z"></path>
    <path fill="url(#b)" d="M48.85,23.4a10.37,10.37,0,0,0-1.65-5.83,10,10,0,0,0-8.77-4.49c-2.48,0-5,0-7.43,0v.05c-2.85,0-5.7-.07-8.54,0a9.43,9.43,0,0,0-6.26,2.57,9.84,9.84,0,0,0-3.1,7.4c0,4.55,0,9.1,0,13.66A26.82,26.82,0,0,0,13.19,40a9.55,9.55,0,0,0,4.3,7.14,11,11,0,0,0,6.29,1.71c3.81,0,7.61,0,11.42,0a46.78,46.78,0,0,0,5.3-.2A9.2,9.2,0,0,0,47,44.75a10.42,10.42,0,0,0,1.84-6.18C48.88,33.52,48.87,28.46,48.85,23.4ZM45.68,38.13a8.06,8.06,0,0,1-.61,3.39,6.46,6.46,0,0,1-5.73,4c-1.41.12-2.84.07-4.27.07q-5.75,0-11.49,0a8,8,0,0,1-3.71-.81,6.14,6.14,0,0,1-3.4-5.32c-.12-1.46-.08-2.93-.08-4.39,0-3.81,0-7.62,0-11.42a9.76,9.76,0,0,1,.41-2.79,5.91,5.91,0,0,1,5.49-4.29c2.1-.19,4.22-.09,6.34-.12.8,0,1.59,0,2.39,0h0c2.61,0,5.22,0,7.83,0a6.77,6.77,0,0,1,4.24,1.39,6.41,6.41,0,0,1,2.48,4.7c.13,1.64.09,3.3.09,4.95C45.69,31,45.68,34.57,45.68,38.13Z"></path>
    <path fill="url(#b)" d="M30.93 21.68a9.23 9.23 0 109.26 9.23A9.24 9.24 0 0030.93 21.68zm0 15.13a5.91 5.91 0 115.91-5.92A5.9 5.9 0 0131 36.81zM40.58 19.37a2.09 2.09 0 102.07 2.09A2.08 2.08 0 0040.58 19.37z"></path>
  </g>
</svg>
